<?xml version="1.0" encoding="utf-8"?>
<!-- Generator: Adobe Illustrator 19.0.0, SVG Export Plug-In . SVG Version: 6.00 Build 0)  -->
<svg version="1.1" id="Capa_1" xmlns="http://www.w3.org/2000/svg" xmlns:xlink="http://www.w3.org/1999/xlink" x="0px" y="0px"
	 viewBox="172 -130.1 500 500" style="enable-background:new 172 -130.1 500 500;" xml:space="preserve">
<style type="text/css">
	.st0{fill:#FFFFFF;}
</style>
<title>twitter</title>
<rect x="172" y="-130.1" width="500" height="500"/>
<g>
	<path class="st0" d="M384.3-40.1c20.7,0,40.7,0,60.7,0c10.2,0,18.7,3.8,25.6,11.1c2.1,2.3,3.9,4.9,5.5,7.7
		c38.2,66.3,76.4,132.6,114.5,199c6.8,11.8,7.5,23.9,0.6,35.9c-9.5,16.6-19.1,33.2-28.7,49.8c-0.4,0.7-0.9,1.3-1.6,2.3
		C502,163.8,443.3,62.2,384.3-40.1z"/>
	<path class="st0" d="M503.7,266c-1.9,0-3.2,0-4.5,0c-63.1,0-126.2,0-189.3,0c-14.6,0-25.3-6.4-32.5-19.1
		c-9-15.7-18.1-31.4-27.2-47.1c-0.6-1.1-1.3-2.3-2.1-3.8c1.6-0.1,2.8-0.2,4.1-0.2c69.2,0,138.3,0,207.5,0c2.1,0,3.9,0,5.2,2.3
		c12.5,21.9,25.1,43.7,37.7,65.5C502.9,264.2,503.1,264.8,503.7,266z"/>
	<path class="st0" d="M355.6,9.1c26.5,45.9,52.6,91.1,78.9,136.7c-52.8,0-105,0-157.8,0C303,100.3,329.1,55,355.6,9.1z"/>
</g>
</svg>
