<svg id="Capa_1" data-name="Capa 1" xmlns="http://www.w3.org/2000/svg" viewBox="0 0 500 500"><defs><style>.cls-1{fill:#fff;}</style></defs><title>blog</title><rect width="500" height="500"/><g id="pencil"><path class="cls-1" d="M281.49,159a21,21,0,0,0-29.75,0l-7.44,7.44L140.2,270.64l0,0L136.95,274s-10.46,10.54-34.08,86.79l-.5,1.6-1.28,4.16-1.15,3.79-1,3.24c-.75,2.5-1.51,5-2.28,7.66C95,387,90.84,400,95.53,404.65c4.51,4.53,17.64.54,23.38-1.16l7.61-2.28,3.37-1,3.57-1.09,4.37-1.35,1.27-.4c72.55-22.59,85.58-33.19,86.66-34.16h0l.08-.07,3.36-3.37.23.23L333.55,255.75h0l7.44-7.44a21.07,21.07,0,0,0,0-29.78ZM213.88,349.65l-.35.23-.25.16-.28.18-.28.17c-3.46,2.07-13.63,7.42-38.3,16.35-2.88,1-6,2.15-9.31,3.29L130,334.91c1.14-3.31,2.25-6.48,3.3-9.38,8.91-24.77,14.25-35,16.32-38.43l.14-.23.2-.33.15-.23.23-.35,2.57-2.57L216.5,347ZM400.48,159,341,99.42a21,21,0,0,0-29.75,0l-14.87,14.89a21.07,21.07,0,0,0,0,29.78l59.49,59.55a21,21,0,0,0,29.75,0l14.87-14.89A21.07,21.07,0,0,0,400.48,159Z"/></g></svg>