<?xml version="1.0" encoding="utf-8"?>
<!-- Generator: Adobe Illustrator 18.0.0, SVG Export Plug-In . SVG Version: 6.00 Build 0)  -->
<!DOCTYPE svg PUBLIC "-//W3C//DTD SVG 1.1//EN" "http://www.w3.org/Graphics/SVG/1.1/DTD/svg11.dtd">
<svg version="1.1" id="Capa_1" xmlns="http://www.w3.org/2000/svg" xmlns:xlink="http://www.w3.org/1999/xlink" x="0px" y="0px"
	 viewBox="0 0 500 500" enable-background="new 0 0 500 500" xml:space="preserve">
<title>email</title>
<rect width="500" height="500"/>
<path fill="#FFFFFF" d="M48.6,284.3c1.1-14.4,2.7-28.6,5.5-42.7c6.9-33.7,19.1-65.3,40.4-92.5c24.5-31.3,58-40.7,95.2-26.8
	c9.8,3.6,18.5,10,28.1,14.1c7.6,3.2,15.6,5.6,23.7,7.2c5.3,1.1,11.2,1.1,16.5,0c8.5-1.8,17.6-3.6,25-7.9c16.1-9.4,32.6-17.3,51.4-19
	c34.2-3.1,58.8,12.9,77.1,40.1c27,40.3,39.6,85.4,40,133.5c0.2,21.2-2.4,42.6-5.6,63.5c-2.3,15.2-11.4,26.5-27.9,29.6
	c-10.7,2-20.2-1.3-27.9-8c-14.9-12.9-51.4-48.7-55-53.1c-6.2-7.5-14.2-10.7-23.6-10.8c-40.9-0.1-81.7,0-122.6,0
	c-9.8,0-17.4,4.1-24.2,11.3c-15,15.8-30.6,31.2-46.2,46.5c-3.5,3.5-7.9,6.2-12.1,8.8C86.9,390,65,383.5,57.3,362
	c-4.5-12.7-5.4-26.7-8-40.1C48.7,318.8,47.9,293.7,48.6,284.3z M178.8,228.2c10.6,0,20,0,30.1,0c0-8.9-0.3-17,0.1-25.1
	c0.3-5.4-1.9-6.9-6.9-6.7c-7.5,0.3-15.1,0.1-23.5,0.1c0-10.5,0-19.9,0-29.6c-10.7,0-20.6,0-31.3,0c0,9.8,0,19.2,0,29.6
	c-10.3,0-19.9,0-29.6,0c0,11.2,0,21.3,0,32.2c9.9,0,19.3,0,29.6,0c0,10.1,0,19.4,0,29.4c9.2,0,17.3-0.2,25.4,0.1
	c5.1,0.2,6.3-2.1,6.1-6.7C178.6,244.2,178.8,236.9,178.8,228.2z M383.3,237.1c11.7-0.1,21.8-10.3,21.6-21.8
	c-0.1-11.5-10.5-21.5-22.1-21.4c-11.8,0.2-21.8,10.3-21.5,21.9C361.5,227.4,371.6,237.2,383.3,237.1z M327.3,265
	c11.8,0.7,22.2-8.6,22.8-20.3c0.7-12-8.4-22.2-20.2-22.8c-11.9-0.6-22.2,8.5-22.8,20.3C306.4,253.9,315.6,264.3,327.3,265z
	 M350.1,182.9c-0.2-11.9-9.9-21.3-21.9-21.1c-11.9,0.2-21.5,10-21.2,21.9c0.3,11.8,10.3,21.5,22,21.3
	C340.7,204.6,350.3,194.7,350.1,182.9z"/>
</svg>
