<svg id="Capa_1" data-name="Capa 1" xmlns="http://www.w3.org/2000/svg" viewBox="0 0 500 500"><defs><style>.cls-1{fill:#fff;}</style></defs><title>linkedin</title><rect width="500" height="500"/><g id="linkenin"><path id="LinkedIn" class="cls-1" d="M404,270.29V384.16H338V277.91c0-26.69-9.55-44.9-33.44-44.9-18.24,0-29.1,12.28-33.87,24.15-1.74,4.24-2.19,10.15-2.19,16.1v110.9h-66s.89-179.94,0-198.58h66v28.15c-.13.21-.31.44-.43.64h.43v-.64c8.77-13.51,24.44-32.81,59.51-32.81C371.43,180.91,404,209.29,404,270.29ZM133.37,89.84c-22.59,0-37.37,14.82-37.37,34.3,0,19.06,14.35,34.33,36.49,34.33h.44c23,0,37.35-15.26,37.35-34.33C169.85,104.66,156,89.84,133.37,89.84ZM99.92,384.16h66V185.57h-66Z"/></g></svg>