<svg id="Capa_1" data-name="Capa 1" xmlns="http://www.w3.org/2000/svg" viewBox="0 0 500 500"><defs><style>.cls-1{fill:#fff;}</style></defs><title>twitter</title><rect width="500" height="500"/><g id="twitter"><path class="cls-1" d="M424,142.11a142.56,142.56,0,0,1-41,11.24,71.69,71.69,0,0,0,31.38-39.47A143.92,143.92,0,0,1,369,131.21,71.44,71.44,0,0,0,247.38,196.3a202.68,202.68,0,0,1-147.13-74.59A71.47,71.47,0,0,0,122.34,217,71.39,71.39,0,0,1,90,208v.89a71.46,71.46,0,0,0,57.26,70,72.31,72.31,0,0,1-18.81,2.5A68.52,68.52,0,0,1,115,280.11a71.43,71.43,0,0,0,66.67,49.58A143.23,143.23,0,0,1,93,360.2a151.72,151.72,0,0,1-17-1,201.79,201.79,0,0,0,109.43,32.12c131.32,0,203.11-108.77,203.11-203.11l-.24-9.24A142.56,142.56,0,0,0,424,142.11Z"/></g></svg>