<?xml version="1.0" encoding="utf-8"?>
<!-- Generator: Adobe Illustrator 18.0.0, SVG Export Plug-In . SVG Version: 6.00 Build 0)  -->
<!DOCTYPE svg PUBLIC "-//W3C//DTD SVG 1.1//EN" "http://www.w3.org/Graphics/SVG/1.1/DTD/svg11.dtd">
<svg version="1.1" id="Capa_1" xmlns="http://www.w3.org/2000/svg" xmlns:xlink="http://www.w3.org/1999/xlink" x="0px" y="0px"
	 viewBox="0 0 500 500" enable-background="new 0 0 500 500" xml:space="preserve">
<title>email</title>
<rect width="500" height="500"/>
<g id="email">
	<path fill="#FFFFFF" d="M117.5,200.6c4.2,2.9,16.7,11.6,37.5,26.1c20.9,14.4,36.9,25.6,48,33.4c1.2,0.9,3.8,2.7,7.8,5.6
		c4,2.9,7.3,5.2,9.9,7c2.6,1.8,5.8,3.8,9.5,6c3.3,2,6.9,3.7,10.5,4.9c2.9,1,6,1.6,9.1,1.6h0.4c3.1-0.1,6.2-0.6,9.2-1.6
		c3.7-1.3,7.2-2.9,10.5-4.9c3.7-2.2,6.9-4.2,9.5-6c2.6-1.8,5.9-4.1,9.9-7c4-2.9,6.6-4.7,7.8-5.6c11.2-7.8,39.8-27.6,85.7-59.5
		c8.7-6.1,16.3-13.7,22.3-22.5c6-8.8,9-18,9-27.6c-0.1-16.1-13.2-29.2-29.3-29.3H115.3c-9.4,0-16.6,3.2-21.7,9.5S86,144.9,86,154.4
		c0,7.7,3.4,16,10.1,25C102.8,188.4,109.9,195.5,117.5,200.6z"/>
	<path fill="#FFFFFF" d="M395.7,220.2c-40,27.1-70.4,48.1-91.1,63.1c-7,5.1-12.6,9.1-16.9,12c-5.5,3.5-11.3,6.4-17.3,8.8
		c-6.3,2.8-13.2,4.3-20.1,4.5h-0.4c-6.9-0.2-13.8-1.7-20.1-4.5c-6-2.4-11.8-5.3-17.3-8.8c-4.3-2.9-10-6.9-16.9-12
		c-16.5-12.1-46.8-33.1-91-63.1c-6.8-4.5-13-9.9-18.5-15.9v145.3c0,16.2,13.1,29.2,29.3,29.3h269.4c16.2,0,29.2-13.1,29.3-29.3
		V204.2C408.6,210.3,402.4,215.6,395.7,220.2z"/>
</g>
</svg>
